<svg xmlns="http://www.w3.org/2000/svg" viewBox="0 0 35.87 35.84"><defs><style>.cls-1{fill:#5eb2ff;}</style></defs><title>boy</title><g id="图层_2" data-name="图层 2"><g id="图层_1-2" data-name="图层 1"><path class="cls-1" d="M25.39,12.83,32.52,5.7v6.88a1.68,1.68,0,0,0,3.35,0V1.68c-.08-.25-.08-.42-.17-.67A1,1,0,0,0,35.37.5a1.1,1.1,0,0,0-.5-.33,1.56,1.56,0,0,0-.59-.09L23.3,0a1.8,1.8,0,0,0-1.68,1.68A1.79,1.79,0,0,0,23.3,3.35h6.87l-7,7.05a14.76,14.76,0,1,0,2.26,2.43ZM6.45,29.43A11,11,0,0,1,22,13.83,11,11,0,0,1,6.45,29.43Z"/></g></g></svg>