<svg xmlns="http://www.w3.org/2000/svg" viewBox="0 0 45.96 33.44"><defs><style>.cls-1{fill:#bb3439;}</style></defs><title>card_vip</title><g id="图层_2" data-name="图层 2"><g id="图层_1-2" data-name="图层 1"><path class="cls-1" d="M.71,7.6H45.28c.68,0,.68-.52.68-.52V2.33A2.34,2.34,0,0,0,43.63,0H2.33A2.34,2.34,0,0,0,0,2.33V6.76a.74.74,0,0,0,.71.84Zm44.28,5H.73c-.73,0-.73.58-.73.58v18a2.34,2.34,0,0,0,2.33,2.33h41.3A2.34,2.34,0,0,0,46,31.11V13.5a.94.94,0,0,0-1-.95ZM7.06,19.82a.83.83,0,0,1-.83.83h-3a.83.83,0,0,1-.82-.83V17a.82.82,0,0,1,.82-.82h3a.83.83,0,0,1,.83.82Zm6.36,0a.83.83,0,0,1-.82.83h-3a.83.83,0,0,1-.83-.83V17a.83.83,0,0,1,.83-.82h3a.82.82,0,0,1,.82.82ZM25.57,30.55H23.35L20.2,21.36h2.11l2,6.5a4.62,4.62,0,0,1,.19.91h0a4.7,4.7,0,0,1,.2-.93l2-6.48h2.05Zm8.28-7.67h-.79V29h.79v1.52H30.32V29h.78V22.88h-.78V21.36h3.53ZM42,26.53a3.82,3.82,0,0,1-2.59.82h-1v3.2h-2V21.36h3.16q3.44,0,3.43,2.91a2.78,2.78,0,0,1-1,2.26Z"/><path class="cls-1" d="M39.22,22.88h-.86v3h.85c1.15,0,1.72-.5,1.72-1.51s-.57-1.46-1.71-1.46Z"/></g></g></svg>