<svg xmlns="http://www.w3.org/2000/svg" viewBox="0 0 96.08 84.63"><defs><style>.cls-1{fill:#fff;}</style></defs><title>cloud</title><g id="图层_2" data-name="图层 2"><g id="图层_1-2" data-name="图层 1"><path class="cls-1" d="M22.28,15a2.81,2.81,0,0,0,2.19,1,2.92,2.92,0,0,0,2.66-1.81,3.21,3.21,0,0,0-.47-3.3L21.14,4.3a2.82,2.82,0,0,0-4.05-.18,3.2,3.2,0,0,0-.34,4.25Z"/><path class="cls-1" d="M46,14.3a3,3,0,0,0,2.75-2L51.59,4a3.12,3.12,0,0,0-1.8-3.8A2.89,2.89,0,0,0,46.1,1.89l-2.84,8.28A3.22,3.22,0,0,0,43.62,13,2.89,2.89,0,0,0,46,14.3Z"/><path class="cls-1" d="M61.65,26.78a2.72,2.72,0,0,0,.8-.12l8-2.43a3.11,3.11,0,0,0,2-3.81,2.91,2.91,0,0,0-3.61-2.11l-8,2.43a3.09,3.09,0,0,0-2.09,3.39A3,3,0,0,0,61.65,26.78Z"/><path class="cls-1" d="M13.74,44.53a2.91,2.91,0,0,0-3.62-2.11l-8,2.44A3.09,3.09,0,0,0,0,48.25,3,3,0,0,0,2.91,50.9a3.1,3.1,0,0,0,.8-.12l8-2.44A3.11,3.11,0,0,0,13.74,44.53Z"/><path class="cls-1" d="M2,25.34l7.73,3.31a2.78,2.78,0,0,0,1.1.23h0a3,3,0,0,0,2.88-2.49,3.13,3.13,0,0,0-1.78-3.45L4.15,19.63A2.8,2.8,0,0,0,1.2,20,3.16,3.16,0,0,0,.09,22.9,3,3,0,0,0,2,25.34Z"/><path class="cls-1" d="M38.45,23.42A17.43,17.43,0,0,1,55,36.43,23.56,23.56,0,0,0,43.62,47.6a17.65,17.65,0,0,0-20.19,3.16,19,19,0,0,1-2.29-9.09C21.15,31.59,28.89,23.43,38.45,23.42Z"/><path class="cls-1" d="M85.43,84.63l-4.27-.15h0l-56.29,0a10.69,10.69,0,0,1-3.11-20.29l1.48-.67.24-1.63a12.16,12.16,0,0,1,12-10.47A12,12,0,0,1,43,54.09l3.45,2.83,1.25-4.33A17.66,17.66,0,0,1,82.4,56.9l.1,2.64,2.58.24a12.54,12.54,0,0,1,.35,24.85Z"/></g></g></svg>