<svg xmlns="http://www.w3.org/2000/svg" viewBox="0 0 34.52 34.52"><defs><style>.cls-1{fill:#37d5ad;}</style></defs><title>dianh</title><g id="图层_2" data-name="图层 2"><g id="图层_1-2" data-name="图层 1"><path class="cls-1" d="M24.41,34.52a8.45,8.45,0,0,1-6-2.48L2.49,16.12a8.52,8.52,0,0,1,0-12L5.67.91a3.1,3.1,0,0,1,4.39,0l3.18,3.18a4.91,4.91,0,0,1,0,6.93l-1.73,1.73L21.77,23l1.73-1.73a4.91,4.91,0,0,1,6.93,0l3.18,3.18a3.11,3.11,0,0,1,0,4.39L30.43,32A8.47,8.47,0,0,1,24.41,34.52Z"/><path class="cls-1" d="M25.71,18.28l-.22,0a1.31,1.31,0,0,1-.84-.53,1.29,1.29,0,0,1-.22-1,5.72,5.72,0,0,0-1.58-5,5.62,5.62,0,0,0-4-1.66,5.73,5.73,0,0,0-1.23.14,1.27,1.27,0,0,1-.28,0,1.28,1.28,0,0,1-1.26-1,1.26,1.26,0,0,1,.17-1,1.28,1.28,0,0,1,.82-.56A8.17,8.17,0,0,1,24.68,10,8.29,8.29,0,0,1,27,17.2a1.25,1.25,0,0,1-.36.7A1.32,1.32,0,0,1,25.71,18.28Z"/><path class="cls-1" d="M30.7,17.35a.86.86,0,0,1-.22,0,1.24,1.24,0,0,1-.84-.53,1.26,1.26,0,0,1-.22-1,9.15,9.15,0,0,0-2.55-8,9,9,0,0,0-6.44-2.68,9.35,9.35,0,0,0-2,.21,1,1,0,0,1-.28,0,1.31,1.31,0,0,1-.28-2.58,12,12,0,0,1,2.53-.27,11.74,11.74,0,0,1,11.19,8.26A11.79,11.79,0,0,1,32,16.27a1.28,1.28,0,0,1-.36.7A1.26,1.26,0,0,1,30.7,17.35Z"/></g></g></svg>