<svg xmlns="http://www.w3.org/2000/svg" viewBox="0 0 41.12 41.12"><defs><style>.cls-1{fill:#bb3439;}</style></defs><title>face</title><g id="图层_2" data-name="图层 2"><g id="图层_1-2" data-name="图层 1"><path class="cls-1" d="M20.56,5.42a15.1,15.1,0,1,0,15.1,15.1A15.1,15.1,0,0,0,20.56,5.42Zm-6.7,10.45a1.16,1.16,0,0,1,2.32,0v2.48a1.16,1.16,0,0,1-2.32,0ZM27,24.94a8.36,8.36,0,0,1-12.86,0,1.13,1.13,0,0,1,.16-1.63,1.12,1.12,0,0,1,1.62.15,6,6,0,0,0,9.3,0,1.12,1.12,0,0,1,1.62-.15A1.13,1.13,0,0,1,27,24.94Zm.38-6.59a1.16,1.16,0,0,1-1.16,1.16,1.14,1.14,0,0,1-1.16-1.16V15.87a1.16,1.16,0,0,1,2.32,0Z"/><path class="cls-1" d="M20.56,0A20.56,20.56,0,1,0,41.12,20.56,20.58,20.58,0,0,0,20.56,0Zm0,38.8A18.24,18.24,0,1,1,38.8,20.56,18.24,18.24,0,0,1,20.56,38.8Z"/></g></g></svg>