<svg xmlns="http://www.w3.org/2000/svg" viewBox="0 0 35.62 35.76"><defs><style>.cls-1{fill:#e45487;}</style></defs><title>girl</title><g id="图层_2" data-name="图层 2"><g id="图层_1-2" data-name="图层 1"><path class="cls-1" d="M31.44,24.27A14.23,14.23,0,0,0,11.32,4.15a14.35,14.35,0,0,0-1.09,19l-2.6,2.6L3.44,21.59a1.63,1.63,0,0,0-2.35,0,1.52,1.52,0,0,0,.08,2.26L5.37,28,.5,32.91a1.61,1.61,0,0,0,0,2.34,1.63,1.63,0,0,0,2.35,0l4.86-4.86,4.19,4.19a1.66,1.66,0,0,0,2.35-2.34L10.06,28l2.6-2.6a14.23,14.23,0,0,0,18.78-1.17ZM13.58,6.41A11,11,0,1,1,29.17,22,11,11,0,0,1,13.58,6.41Z"/></g></g></svg>