<svg xmlns="http://www.w3.org/2000/svg" viewBox="0 0 34.69 34.7"><defs><style>.cls-1{fill:#bb3439;}</style></defs><title>jiaqian</title><g id="图层_2" data-name="图层 2"><g id="图层_1-2" data-name="图层 1"><path class="cls-1" d="M33.36,2.84l-1.5-1.51a4.58,4.58,0,0,0-6.45,0L22.49,4.26h-8.4a1.57,1.57,0,0,0-1,.4L1.33,16.38a4.58,4.58,0,0,0,0,6.45L11.87,33.36a4.54,4.54,0,0,0,6.44,0L30,21.7a1.52,1.52,0,0,0,.45-1.12V12.22l2.94-2.94A4.55,4.55,0,0,0,33.36,2.84Zm-9.63,15.8H21.08l.5.5a1.33,1.33,0,0,1,.4,1,1.35,1.35,0,0,1-.4,1,1.36,1.36,0,0,1-1.93,0L17.6,19l-1.54,1.55,2,2a1.36,1.36,0,0,1,0,1.93,1.35,1.35,0,0,1-1.92,0l-2-2L12,24.67a1.36,1.36,0,0,1-1.93,0,1.33,1.33,0,0,1-.4-1,1.37,1.37,0,0,1,.4-1l2.18-2.17-2-2.05a1.35,1.35,0,0,1,0-1.93,1.35,1.35,0,0,1,1.92,0l2.05,2.05,1.55-1.55-2-2a1.35,1.35,0,0,1-.4-1,1.33,1.33,0,0,1,.4-1,1.36,1.36,0,0,1,1.93,0l.41.41V11a1.37,1.37,0,0,1,2.73,0v4.9h5a1.37,1.37,0,1,1,0,2.73Zm7.7-11.29-3,3a1.81,1.81,0,0,1-2.58,0l-1.51-1.5a1.85,1.85,0,0,1,0-2.59l3-3a1.85,1.85,0,0,1,2.59,0l1.5,1.51A1.81,1.81,0,0,1,31.43,7.35Z"/></g></g></svg>