<svg xmlns="http://www.w3.org/2000/svg" viewBox="0 0 35.72 29.95"><defs><style>.cls-1{fill:#90be41;}</style></defs><title>mail</title><g id="图层_2" data-name="图层 2"><g id="图层_1-2" data-name="图层 1"><path class="cls-1" d="M29.43,30H6.29A6.31,6.31,0,0,1,0,23.66V6.29A6.31,6.31,0,0,1,6.29,0H29.43a6.3,6.3,0,0,1,6.29,6.29V23.66A6.3,6.3,0,0,1,29.43,30ZM6.29,3A3.24,3.24,0,0,0,3,6.29V23.66a3.25,3.25,0,0,0,3.25,3.25H29.43a3.25,3.25,0,0,0,3.25-3.25V6.29A3.24,3.24,0,0,0,29.43,3Z"/><path class="cls-1" d="M17.86,15.6a9.51,9.51,0,0,1-6.58-2.79L2.76,4.61a1.51,1.51,0,0,1-.52-1.49A1.55,1.55,0,0,1,3.34,2a1.52,1.52,0,0,1,1.52.46l8.51,8.19a6.08,6.08,0,0,0,9,0l8.51-8.19A1.52,1.52,0,1,1,33,4.61l-8.51,8.2a9.47,9.47,0,0,1-6.59,2.79Z"/></g></g></svg>