<svg xmlns="http://www.w3.org/2000/svg" viewBox="0 0 34.69 34.7"><defs><style>.cls-1{fill:#bb3439;}</style></defs><title>price</title><g id="图层_2" data-name="图层 2"><g id="图层_1-2" data-name="图层 1"><path class="cls-1" d="M33.36,2.84l-1.5-1.51a4.58,4.58,0,0,0-6.45,0L22.49,4.26h-8.4a1.57,1.57,0,0,0-1,.4L1.33,16.38a4.58,4.58,0,0,0,0,6.45L11.87,33.36a4.54,4.54,0,0,0,6.44,0L30,21.7a1.52,1.52,0,0,0,.45-1.12V12.22l2.94-2.94A4.55,4.55,0,0,0,33.36,2.84ZM27.69,20.12,16.38,31.43a1.81,1.81,0,0,1-2.58,0L3.26,20.9a1.84,1.84,0,0,1,0-2.59L14.59,7h6.59a4.43,4.43,0,0,0,1.22,3.81l1.51,1.5A4.36,4.36,0,0,0,27,13.56a4.87,4.87,0,0,0,.66,0ZM31.43,7.35l-3,3a1.81,1.81,0,0,1-2.58,0l-1.51-1.5a1.85,1.85,0,0,1,0-2.59l3-3a1.85,1.85,0,0,1,2.59,0l1.5,1.51A1.81,1.81,0,0,1,31.43,7.35Z"/><path class="cls-1" d="M23.73,15.91h-5V11A1.37,1.37,0,0,0,16,11v2.52l-.41-.41a1.36,1.36,0,0,0-1.93,0,1.33,1.33,0,0,0-.4,1,1.35,1.35,0,0,0,.4,1l2,2-1.55,1.55-2.05-2.05a1.35,1.35,0,0,0-1.92,0,1.35,1.35,0,0,0,0,1.93l2,2.05L10,22.74a1.37,1.37,0,0,0-.4,1,1.33,1.33,0,0,0,.4,1,1.36,1.36,0,0,0,1.93,0l2.18-2.17,2,2a1.35,1.35,0,0,0,1.92,0,1.36,1.36,0,0,0,0-1.93l-2-2L17.6,19l2,2.05a1.36,1.36,0,0,0,1.93,0,1.35,1.35,0,0,0,.4-1,1.33,1.33,0,0,0-.4-1l-.5-.5h2.65a1.37,1.37,0,1,0,0-2.73Z"/></g></g></svg>