<svg xmlns="http://www.w3.org/2000/svg" viewBox="0 0 63.97 51.18"><defs><style>.cls-1{fill:#d3d3d3;}</style></defs><title>upload</title><g id="图层_2" data-name="图层 2"><g id="图层_1-2" data-name="图层 1"><path class="cls-1" d="M41.58,28.79A9.42,9.42,0,0,1,32,38.38a9.42,9.42,0,0,1-9.6-9.59,9.43,9.43,0,0,1,9.6-9.6,9.43,9.43,0,0,1,9.59,9.6Zm20.79,9.59h-8v-8a1.6,1.6,0,0,0-3.2,0v8h-8a1.6,1.6,0,0,0,0,3.2h8v8a1.6,1.6,0,0,0,3.2,0v-8h8a1.6,1.6,0,1,0,0-3.2ZM57.58,9.6H48V6.4A6.42,6.42,0,0,0,41.58,0H22.39A6.42,6.42,0,0,0,16,6.4V9.6H6.4A6.41,6.41,0,0,0,0,16V44.78a6.42,6.42,0,0,0,6.4,6.4H36.78a1.6,1.6,0,0,0,0-3.2H6.4a3,3,0,0,1-3.2-3.2V16a3,3,0,0,1,3.2-3.2H16a3,3,0,0,0,3.2-3.19V6.4a3,3,0,0,1,3.2-3.2H41.58a3,3,0,0,1,3.2,3.2V9.6A3,3,0,0,0,48,12.79h9.6a3,3,0,0,1,3.2,3.2v8A1.6,1.6,0,1,0,64,24V16A6.41,6.41,0,0,0,57.58,9.6Z"/></g></g></svg>