<svg xmlns="http://www.w3.org/2000/svg" viewBox="0 0 62.12 50.37"><defs><style>.cls-1{fill:#09bb07;}</style></defs><title>weixin</title><g id="图层_2" data-name="图层 2"><g id="图层_1-2" data-name="图层 1"><path class="cls-1" d="M42.49,14.85h.38C40.94,6.4,32.16,0,21.63,0,9.69,0,0,8.21,0,18.35c0,5.89,3.27,11.13,8.36,14.49L6.22,39.21l7.54-3.74-.14-.08a25,25,0,0,0,8,1.31c.64,0,1.28,0,1.91-.07a14.52,14.52,0,0,1-.88-5c0-9.27,8.87-16.81,19.83-16.81ZM28.62,10.26a2.73,2.73,0,0,1,2.88,2.53,2.58,2.58,0,0,1-1.86,2.37,3.4,3.4,0,0,1-1,.16,2.73,2.73,0,0,1-2.88-2.53,2.73,2.73,0,0,1,2.88-2.53Zm-12.86,4.9a3.12,3.12,0,0,1-1,.17,2.73,2.73,0,0,1-2.88-2.53,2.73,2.73,0,0,1,2.88-2.53,2.73,2.73,0,0,1,2.88,2.53,2.55,2.55,0,0,1-1.86,2.36Z"/><path class="cls-1" d="M62.12,32.7c0-8.55-8.17-15.48-18.24-15.48S25.64,24.14,25.64,32.7s8.17,15.48,18.24,15.48a21.16,21.16,0,0,0,6.43-1l5.8,3.18-1.56-5.13c4.58-2.8,7.57-7.38,7.57-12.54ZM39,29.88a2.55,2.55,0,0,1-.84.14,2.29,2.29,0,0,1-2.41-2.13,2.43,2.43,0,0,1,4.82,0,2.15,2.15,0,0,1-1.57,2Zm11.81,0A2.55,2.55,0,0,1,50,30a2.29,2.29,0,0,1-2.41-2.13,2.43,2.43,0,0,1,4.82,0,2.15,2.15,0,0,1-1.57,2Z"/></g></g></svg>