<svg xmlns="http://www.w3.org/2000/svg" viewBox="0 0 23.95 34.52"><defs><style>.cls-1{fill:#bb3439;}</style></defs><title>weizhi</title><g id="图层_2" data-name="图层 2"><g id="图层_1-2" data-name="图层 1"><path class="cls-1" d="M18.49,26.32a.75.75,0,1,0-.39,1.45c2.49.67,3.61,1.62,3.61,2.26S21,31.3,19.14,32A22.15,22.15,0,0,1,12,33,22.06,22.06,0,0,1,4.82,32C2.92,31.3,2.25,30.53,2.25,30s1.11-1.59,3.6-2.26a.75.75,0,0,0,.53-.92.76.76,0,0,0-.92-.53C2.42,27.15.75,28.46.75,30a2.73,2.73,0,0,0,1.09,2,8,8,0,0,0,2.47,1.32A23.52,23.52,0,0,0,12,34.52a23.5,23.5,0,0,0,7.66-1.14,8.06,8.06,0,0,0,2.48-1.32,2.75,2.75,0,0,0,1.08-2c0-1.57-1.67-2.88-4.71-3.71ZM8.91,28A4.09,4.09,0,0,0,12,29.44h0A4.1,4.1,0,0,0,15.06,28a58.42,58.42,0,0,0,4.36-5.47C22.43,18.24,24,14.69,24,12A11.84,11.84,0,0,0,23,7.31a12.07,12.07,0,0,0-2.56-3.8A11.86,11.86,0,0,0,16.64.94,12,12,0,0,0,0,12c0,2.71,1.53,6.26,4.54,10.54A59.77,59.77,0,0,0,8.91,28ZM7.33,11.64a4.79,4.79,0,1,1,4.79,4.79,4.8,4.8,0,0,1-4.79-4.79Z"/></g></g></svg>